<mxfile host="app.diagrams.net" agent="Mozilla/5.0 (X11; Linux x86_64) AppleWebKit/537.36 (KHTML, like Gecko) Chrome/130.0.0.0 Safari/537.36" version="26.0.10">
  <diagram name="PÃ¡gina-1" id="QF4lKItVhv-eOiZu1v8f">
    <mxGraphModel dx="2053" dy="1688" grid="1" gridSize="10" guides="1" tooltips="1" connect="1" arrows="1" fold="1" page="1" pageScale="1" pageWidth="827" pageHeight="1169" math="0" shadow="0">
      <root>
        <mxCell id="0" />
        <mxCell id="1" parent="0" />
        <mxCell id="T9SjLWpn--4J0gQBV576-44" value="" style="rounded=0;whiteSpace=wrap;html=1;" vertex="1" parent="1">
          <mxGeometry x="-160" y="40" width="1290" height="700" as="geometry" />
        </mxCell>
        <mxCell id="T9SjLWpn--4J0gQBV576-32" style="edgeStyle=orthogonalEdgeStyle;rounded=0;orthogonalLoop=1;jettySize=auto;html=1;" edge="1" parent="1" source="T9SjLWpn--4J0gQBV576-1">
          <mxGeometry relative="1" as="geometry">
            <mxPoint x="180" y="400" as="targetPoint" />
          </mxGeometry>
        </mxCell>
        <mxCell id="T9SjLWpn--4J0gQBV576-1" value="RAW PDFs" style="rounded=0;whiteSpace=wrap;html=1;" vertex="1" parent="1">
          <mxGeometry x="10" y="370" width="120" height="60" as="geometry" />
        </mxCell>
        <mxCell id="T9SjLWpn--4J0gQBV576-26" style="edgeStyle=orthogonalEdgeStyle;rounded=0;orthogonalLoop=1;jettySize=auto;html=1;entryX=0;entryY=0.5;entryDx=0;entryDy=0;" edge="1" parent="1" source="T9SjLWpn--4J0gQBV576-2" target="T9SjLWpn--4J0gQBV576-3">
          <mxGeometry relative="1" as="geometry" />
        </mxCell>
        <mxCell id="T9SjLWpn--4J0gQBV576-2" value="TEXT" style="rounded=0;whiteSpace=wrap;html=1;" vertex="1" parent="1">
          <mxGeometry x="200" y="370" width="120" height="60" as="geometry" />
        </mxCell>
        <mxCell id="T9SjLWpn--4J0gQBV576-3" value="TEXT .TXT" style="rounded=0;whiteSpace=wrap;html=1;" vertex="1" parent="1">
          <mxGeometry x="680" y="370" width="120" height="60" as="geometry" />
        </mxCell>
        <mxCell id="T9SjLWpn--4J0gQBV576-4" value="" style="rounded=0;whiteSpace=wrap;html=1;shape=image;labelBackgroundColor=default;verticalAlign=top;verticalLabelPosition=bottom;aspect=fixed;perimeter=ellipsePerimeter;shadow=0;dashed=0;spacingTop=3;image=img/lib/active_directory/internet_cloud.svg;" vertex="1" parent="1">
          <mxGeometry x="-120" y="-50" width="120" height="60" as="geometry" />
        </mxCell>
        <mxCell id="T9SjLWpn--4J0gQBV576-25" style="edgeStyle=orthogonalEdgeStyle;rounded=0;orthogonalLoop=1;jettySize=auto;html=1;entryX=0;entryY=0.5;entryDx=0;entryDy=0;" edge="1" parent="1" source="T9SjLWpn--4J0gQBV576-5" target="T9SjLWpn--4J0gQBV576-10">
          <mxGeometry relative="1" as="geometry" />
        </mxCell>
        <mxCell id="T9SjLWpn--4J0gQBV576-5" value="TABLES" style="rounded=0;whiteSpace=wrap;html=1;" vertex="1" parent="1">
          <mxGeometry x="200" y="490" width="120" height="60" as="geometry" />
        </mxCell>
        <mxCell id="T9SjLWpn--4J0gQBV576-33" style="edgeStyle=orthogonalEdgeStyle;rounded=0;orthogonalLoop=1;jettySize=auto;html=1;entryX=0;entryY=0.5;entryDx=0;entryDy=0;" edge="1" parent="1" source="T9SjLWpn--4J0gQBV576-6" target="T9SjLWpn--4J0gQBV576-15">
          <mxGeometry relative="1" as="geometry">
            <mxPoint x="410" y="270" as="targetPoint" />
          </mxGeometry>
        </mxCell>
        <mxCell id="T9SjLWpn--4J0gQBV576-6" value="IMAGES" style="rounded=0;whiteSpace=wrap;html=1;" vertex="1" parent="1">
          <mxGeometry x="200" y="250" width="120" height="60" as="geometry" />
        </mxCell>
        <mxCell id="T9SjLWpn--4J0gQBV576-21" style="edgeStyle=orthogonalEdgeStyle;rounded=0;orthogonalLoop=1;jettySize=auto;html=1;exitX=0.5;exitY=0;exitDx=0;exitDy=0;entryX=0;entryY=0.5;entryDx=0;entryDy=0;" edge="1" parent="1" source="T9SjLWpn--4J0gQBV576-10" target="T9SjLWpn--4J0gQBV576-11">
          <mxGeometry relative="1" as="geometry" />
        </mxCell>
        <mxCell id="T9SjLWpn--4J0gQBV576-22" style="edgeStyle=orthogonalEdgeStyle;rounded=0;orthogonalLoop=1;jettySize=auto;html=1;exitX=0.5;exitY=1;exitDx=0;exitDy=0;" edge="1" parent="1" source="T9SjLWpn--4J0gQBV576-10" target="T9SjLWpn--4J0gQBV576-12">
          <mxGeometry relative="1" as="geometry" />
        </mxCell>
        <mxCell id="T9SjLWpn--4J0gQBV576-10" value="CLASSIFY" style="rhombus;whiteSpace=wrap;html=1;" vertex="1" parent="1">
          <mxGeometry x="370" y="480" width="80" height="80" as="geometry" />
        </mxCell>
        <mxCell id="T9SjLWpn--4J0gQBV576-23" style="edgeStyle=orthogonalEdgeStyle;rounded=0;orthogonalLoop=1;jettySize=auto;html=1;entryX=0;entryY=0.5;entryDx=0;entryDy=0;" edge="1" parent="1" source="T9SjLWpn--4J0gQBV576-11" target="T9SjLWpn--4J0gQBV576-13">
          <mxGeometry relative="1" as="geometry">
            <mxPoint x="703" y="525" as="targetPoint" />
          </mxGeometry>
        </mxCell>
        <mxCell id="T9SjLWpn--4J0gQBV576-11" value="TABLEGPT" style="rounded=0;whiteSpace=wrap;html=1;" vertex="1" parent="1">
          <mxGeometry x="500" y="430" width="120" height="60" as="geometry" />
        </mxCell>
        <mxCell id="T9SjLWpn--4J0gQBV576-24" style="edgeStyle=orthogonalEdgeStyle;rounded=0;orthogonalLoop=1;jettySize=auto;html=1;entryX=0;entryY=0.5;entryDx=0;entryDy=0;" edge="1" parent="1" source="T9SjLWpn--4J0gQBV576-12" target="T9SjLWpn--4J0gQBV576-13">
          <mxGeometry relative="1" as="geometry">
            <mxPoint x="703" y="525" as="targetPoint" />
          </mxGeometry>
        </mxCell>
        <mxCell id="T9SjLWpn--4J0gQBV576-12" value="QWEN" style="rounded=0;whiteSpace=wrap;html=1;" vertex="1" parent="1">
          <mxGeometry x="500" y="550" width="120" height="60" as="geometry" />
        </mxCell>
        <mxCell id="T9SjLWpn--4J0gQBV576-13" value="TABLES .TXT" style="rounded=0;whiteSpace=wrap;html=1;" vertex="1" parent="1">
          <mxGeometry x="680" y="490" width="120" height="60" as="geometry" />
        </mxCell>
        <mxCell id="T9SjLWpn--4J0gQBV576-27" style="edgeStyle=orthogonalEdgeStyle;rounded=0;orthogonalLoop=1;jettySize=auto;html=1;entryX=0;entryY=0.5;entryDx=0;entryDy=0;" edge="1" parent="1" source="T9SjLWpn--4J0gQBV576-15" target="T9SjLWpn--4J0gQBV576-17">
          <mxGeometry relative="1" as="geometry" />
        </mxCell>
        <mxCell id="T9SjLWpn--4J0gQBV576-15" value="CLASSIFY" style="rhombus;whiteSpace=wrap;html=1;" vertex="1" parent="1">
          <mxGeometry x="370" y="240" width="80" height="80" as="geometry" />
        </mxCell>
        <mxCell id="T9SjLWpn--4J0gQBV576-28" style="edgeStyle=orthogonalEdgeStyle;rounded=0;orthogonalLoop=1;jettySize=auto;html=1;entryX=0.5;entryY=0;entryDx=0;entryDy=0;" edge="1" parent="1" source="T9SjLWpn--4J0gQBV576-16" target="T9SjLWpn--4J0gQBV576-15">
          <mxGeometry relative="1" as="geometry" />
        </mxCell>
        <mxCell id="T9SjLWpn--4J0gQBV576-16" value="CUSTOM MODEL" style="rounded=0;whiteSpace=wrap;html=1;" vertex="1" parent="1">
          <mxGeometry x="350" y="140" width="120" height="60" as="geometry" />
        </mxCell>
        <mxCell id="T9SjLWpn--4J0gQBV576-29" style="edgeStyle=orthogonalEdgeStyle;rounded=0;orthogonalLoop=1;jettySize=auto;html=1;entryX=0;entryY=0.5;entryDx=0;entryDy=0;" edge="1" parent="1" source="T9SjLWpn--4J0gQBV576-17" target="T9SjLWpn--4J0gQBV576-18">
          <mxGeometry relative="1" as="geometry" />
        </mxCell>
        <mxCell id="T9SjLWpn--4J0gQBV576-17" value="LLAMA 3.1 VISION" style="rounded=0;whiteSpace=wrap;html=1;" vertex="1" parent="1">
          <mxGeometry x="500" y="250" width="120" height="60" as="geometry" />
        </mxCell>
        <mxCell id="T9SjLWpn--4J0gQBV576-18" value="IMAGES .TXT" style="rounded=0;whiteSpace=wrap;html=1;" vertex="1" parent="1">
          <mxGeometry x="680" y="250" width="120" height="60" as="geometry" />
        </mxCell>
        <mxCell id="T9SjLWpn--4J0gQBV576-19" value="" style="shape=image;html=1;verticalAlign=top;verticalLabelPosition=bottom;labelBackgroundColor=#ffffff;imageAspect=0;aspect=fixed;image=https://cdn4.iconfinder.com/data/icons/file-extension-names-vol-8/512/24-128.png" vertex="1" parent="1">
          <mxGeometry x="47" y="-53.5" width="57" height="57" as="geometry" />
        </mxCell>
        <mxCell id="T9SjLWpn--4J0gQBV576-31" value="" style="endArrow=none;html=1;rounded=0;" edge="1" parent="1">
          <mxGeometry width="50" height="50" relative="1" as="geometry">
            <mxPoint x="180" y="610" as="sourcePoint" />
            <mxPoint x="180" y="200" as="targetPoint" />
          </mxGeometry>
        </mxCell>
        <mxCell id="T9SjLWpn--4J0gQBV576-34" value="&lt;font style=&quot;font-size: 15px;&quot; face=&quot;Verdana&quot;&gt;&lt;b&gt;PDF to TXT WORKFLOW&lt;/b&gt;&lt;/font&gt;" style="text;html=1;align=center;verticalAlign=middle;resizable=0;points=[];autosize=1;strokeColor=none;fillColor=none;" vertex="1" parent="1">
          <mxGeometry x="85" y="160" width="200" height="30" as="geometry" />
        </mxCell>
        <mxCell id="T9SjLWpn--4J0gQBV576-35" value="" style="endArrow=none;html=1;rounded=0;" edge="1" parent="1">
          <mxGeometry width="50" height="50" relative="1" as="geometry">
            <mxPoint x="820" y="610" as="sourcePoint" />
            <mxPoint x="820" y="200" as="targetPoint" />
          </mxGeometry>
        </mxCell>
        <mxCell id="T9SjLWpn--4J0gQBV576-36" style="edgeStyle=orthogonalEdgeStyle;rounded=0;orthogonalLoop=1;jettySize=auto;html=1;" edge="1" parent="1">
          <mxGeometry relative="1" as="geometry">
            <mxPoint x="870" y="399.85999999999996" as="targetPoint" />
            <mxPoint x="820" y="399.85999999999996" as="sourcePoint" />
          </mxGeometry>
        </mxCell>
        <mxCell id="T9SjLWpn--4J0gQBV576-37" value="PDF .TXT" style="rounded=0;whiteSpace=wrap;html=1;" vertex="1" parent="1">
          <mxGeometry x="870" y="370" width="120" height="60" as="geometry" />
        </mxCell>
        <mxCell id="T9SjLWpn--4J0gQBV576-38" value="" style="html=1;strokeWidth=1;shadow=0;dashed=0;shape=mxgraph.ios7.misc.text_size;fillColor=#007AFF;strokeColor=none;buttonText=;strokeColor2=#222222;fontColor=#222222;fontSize=8;verticalLabelPosition=bottom;verticalAlign=top;align=center;sketch=0;" vertex="1" parent="1">
          <mxGeometry x="170" y="-50" width="55" height="50" as="geometry" />
        </mxCell>
        <mxCell id="T9SjLWpn--4J0gQBV576-39" value="different icons i could use:&lt;br&gt;Internet (to mark how i download data)&lt;div&gt;pdf file&lt;/div&gt;&lt;div&gt;text file&lt;/div&gt;&lt;div&gt;model symbol.&lt;/div&gt;&lt;div&gt;I do not know if i should include some or any, or if its better to keep it clean&lt;/div&gt;" style="text;html=1;align=center;verticalAlign=middle;resizable=0;points=[];autosize=1;strokeColor=none;fillColor=none;" vertex="1" parent="1">
          <mxGeometry x="-270" y="-168" width="420" height="100" as="geometry" />
        </mxCell>
        <mxCell id="T9SjLWpn--4J0gQBV576-40" value="" style="sketch=0;outlineConnect=0;fontColor=#232F3E;gradientColor=none;fillColor=#01A88D;strokeColor=none;dashed=0;verticalLabelPosition=bottom;verticalAlign=top;align=center;html=1;fontSize=12;fontStyle=0;aspect=fixed;pointerEvents=1;shape=mxgraph.aws4.sagemaker_model;" vertex="1" parent="1">
          <mxGeometry x="285" y="-68" width="78" height="78" as="geometry" />
        </mxCell>
      </root>
    </mxGraphModel>
  </diagram>
</mxfile>
